<?xml version="1.0" encoding="utf-8"?><svg viewBox="0 0 44 44" xmlns="http://www.w3.org/2000/svg" xmlns:xlink="http://www.w3.org/1999/xlink"><style>:root>svg{display:none}:root>svg:target{display:block}</style><svg fill="none" viewBox="0 0 44 44" id="img-pin" xmlns="http://www.w3.org/2000/svg"><rect width="44" height="44" rx="22" fill="#EBEBEB"/><g clip-path="url(#aclip0_5_39)" fill="#989898"><path d="M23.944 20.743a2.75 2.75 0 11-3.889 3.89 2.75 2.75 0 013.89-3.89z"/><path d="M30.25 15.125h-1.9l-1.376-2.75h-9.95l-1.374 2.751-1.897.004a2.755 2.755 0 00-2.746 2.748L11 28.875a2.753 2.753 0 002.75 2.75h16.5a2.753 2.753 0 002.75-2.75v-11a2.753 2.753 0 00-2.75-2.75zM22 28.188a5.506 5.506 0 01-5.5-5.5c0-3.033 2.467-5.5 5.5-5.5 3.032 0 5.5 2.467 5.5 5.5 0 3.032-2.468 5.5-5.5 5.5z"/></g><defs><clipPath id="aclip0_5_39"><path fill="#fff" transform="translate(11 11)" d="M0 0h22v22H0z"/></clipPath></defs></svg><svg fill="none" viewBox="0 0 25 25" id="instagram" xmlns="http://www.w3.org/2000/svg"><g clip-path="url(#bclip0_11_403)"><path d="M1.563 1.701C-.403 3.741 0 5.909 0 12.495c0 5.469-.954 10.95 4.04 12.242 1.559.4 15.376.4 16.933-.003 2.08-.536 3.77-2.223 4.002-5.163.032-.41.032-13.735-.001-14.153C24.728 2.285 22.8.48 20.259.115 19.677.03 19.56.005 16.573 0 5.976.005 3.653-.467 1.563 1.701z" fill="url(#bpaint0_linear_11_403)"/><path d="M12.498 3.27c-3.782 0-7.374-.337-8.746 3.184-.567 1.454-.484 3.343-.484 6.047 0 2.373-.076 4.603.484 6.046 1.369 3.523 4.99 3.185 8.744 3.185 3.622 0 7.356.377 8.745-3.185.567-1.469.484-3.33.484-6.046 0-3.606.199-5.934-1.55-7.682-1.77-1.771-4.166-1.55-7.681-1.55h.004zm-.827 1.663c7.89-.012 8.894-.89 8.34 11.295-.197 4.31-3.479 3.837-7.512 3.837-7.354 0-7.566-.21-7.566-7.568 0-7.443.584-7.56 6.738-7.566v.002zm5.754 1.533a1.107 1.107 0 100 2.214 1.107 1.107 0 000-2.214zM12.498 7.76a4.74 4.74 0 10.001 9.481 4.74 4.74 0 00-.001-9.48zm0 1.664c4.068 0 4.073 6.154 0 6.154-4.067 0-4.073-6.154 0-6.154z" fill="#fff"/></g><defs><linearGradient id="bpaint0_linear_11_403" x1="1.61" y1="23.403" x2="24.845" y2="3.294" gradientUnits="userSpaceOnUse"><stop stop-color="#8E7F42"/><stop offset=".5" stop-color="#FF543E"/><stop offset="1" stop-color="#C837AB"/></linearGradient><clipPath id="bclip0_11_403"><path fill="#fff" d="M0 0h25v25H0z"/></clipPath></defs></svg><svg fill="none" viewBox="0 0 25 25" id="pinterest" xmlns="http://www.w3.org/2000/svg"><g clip-path="url(#cclip0_8_49)"><path d="M12.5 25C19.404 25 25 19.404 25 12.5 25 5.597 19.404 0 12.5 0 5.597 0 0 5.597 0 12.5 0 19.404 5.597 25 12.5 25z" fill="#CB2027"/><path d="M13.509 16.739c-.945-.073-1.342-.542-2.083-.992-.408 2.137-.905 4.186-2.38 5.256-.455-3.23.668-5.656 1.19-8.231-.89-1.498.107-4.511 1.983-3.769 2.31.913-1.999 5.568.893 6.15 3.02.606 4.252-5.24 2.38-7.141-2.706-2.746-7.875-.063-7.24 3.867.155.961 1.148 1.253.397 2.579-1.732-.384-2.248-1.75-2.182-3.57.108-2.98 2.678-5.067 5.257-5.356 3.26-.365 6.321 1.197 6.744 4.265.475 3.462-1.472 7.21-4.959 6.942z" fill="#F1F2F2"/></g><defs><clipPath id="cclip0_8_49"><path fill="#fff" d="M0 0h25v25H0z"/></clipPath></defs></svg><svg fill="none" viewBox="0 0 44 44" id="post" xmlns="http://www.w3.org/2000/svg"><rect width="44" height="44" rx="22" fill="#3137C9"/><path d="M31.648 21.948l-15.785-7.285a.61.61 0 00-.727.17.604.604 0 00-.014.745l5.19 6.922-5.19 6.92a.605.605 0 00.74.916l15.785-7.285a.606.606 0 000-1.103z" fill="#fff"/></svg><svg fill="none" viewBox="0 0 20 20" id="share" xmlns="http://www.w3.org/2000/svg"><path d="M15.86 12.969a3.513 3.513 0 00-2.828 1.428l-5.518-2.82a3.506 3.506 0 00-.115-2.31l5.784-3.474a3.51 3.51 0 002.676 1.238 3.52 3.52 0 003.516-3.515A3.52 3.52 0 0015.859 0a3.52 3.52 0 00-3.277 4.787L6.784 8.27a3.508 3.508 0 00-2.643-1.2 3.52 3.52 0 00-3.516 3.516 3.513 3.513 0 006.374 2.044l5.502 2.812A3.52 3.52 0 0015.86 20a3.52 3.52 0 003.516-3.516 3.52 3.52 0 00-3.516-3.515zm0-11.797a2.346 2.346 0 012.343 2.344 2.346 2.346 0 01-2.344 2.343 2.346 2.346 0 01-2.343-2.343 2.346 2.346 0 012.343-2.344zM4.14 12.93a2.346 2.346 0 01-2.343-2.344A2.346 2.346 0 014.14 8.242a2.346 2.346 0 012.343 2.344 2.346 2.346 0 01-2.343 2.344zm11.72 5.898a2.346 2.346 0 01-2.344-2.344 2.346 2.346 0 012.343-2.343 2.346 2.346 0 012.344 2.343 2.346 2.346 0 01-2.344 2.344z" fill="#d2d2d2"/></svg><svg fill="none" viewBox="0 0 25 25" id="vk" xmlns="http://www.w3.org/2000/svg"><path d="M12.5 25C19.404 25 25 19.404 25 12.5S19.404 0 12.5 0 0 5.596 0 12.5 5.596 25 12.5 25z" fill="#4D76A1"/><path fill-rule="evenodd" clip-rule="evenodd" d="M12.028 17.982h.98s.297-.032.449-.195c.139-.15.134-.431.134-.431s-.019-1.317.592-1.51c.603-.191 1.376 1.272 2.196 1.834.62.426 1.09.333 1.09.333l2.193-.03s1.146-.071.603-.973c-.045-.074-.317-.667-1.63-1.886-1.375-1.275-1.19-1.069.465-3.276 1.008-1.343 1.411-2.164 1.285-2.515-.12-.335-.861-.246-.861-.246l-2.468.015s-.183-.025-.319.056c-.132.08-.218.265-.218.265s-.39 1.04-.911 1.924c-1.1 1.867-1.539 1.965-1.718 1.85-.418-.271-.314-1.086-.314-1.665 0-1.808.274-2.562-.534-2.757-.268-.065-.466-.108-1.152-.115-.88-.01-1.626.003-2.048.21-.28.137-.497.443-.365.461.163.022.532.1.728.366.253.344.244 1.117.244 1.117s.146 2.129-.339 2.393c-.333.182-.789-.189-1.769-1.882a15.734 15.734 0 01-.88-1.825s-.074-.18-.204-.275c-.158-.116-.38-.153-.38-.153l-2.345.015s-.352.01-.481.163c-.115.136-.01.418-.01.418s1.837 4.295 3.916 6.46c1.906 1.985 4.07 1.854 4.07 1.854z" fill="#fff"/></svg></svg>